<svg width="53" height="52" viewBox="0 0 53 52" fill="none" xmlns="http://www.w3.org/2000/svg">
<path fill-rule="evenodd" clip-rule="evenodd" d="M26.5322 2.13697C13.3889 2.13697 2.73416 12.7917 2.73416 25.9351C2.73416 39.0783 13.3889 49.7332 26.5322 49.7332C39.6756 49.7332 50.3303 39.0783 50.3303 25.9351C50.3303 24.0216 50.1046 22.1621 49.6791 20.3814C49.5517 19.8488 49.8803 19.3137 50.413 19.1864C50.9456 19.059 51.4805 19.3877 51.6079 19.9203C52.0693 21.8511 52.3134 23.8652 52.3134 25.9351C52.3134 40.1735 40.7708 51.7163 26.5322 51.7163C12.2936 51.7163 0.750977 40.1735 0.750977 25.9351C0.750977 11.6965 12.2936 0.153809 26.5322 0.153809C31.2264 0.153809 35.6305 1.4093 39.4235 3.60348C39.8977 3.8777 40.0596 4.48429 39.7854 4.95832C39.5111 5.43236 38.9046 5.59434 38.4305 5.32013C34.9312 3.29586 30.8686 2.13697 26.5322 2.13697ZM50.3705 6.22849C50.7576 6.61572 50.7576 7.24357 50.3705 7.6308L25.706 32.2953L13.4362 20.0257C13.049 19.6382 13.049 19.0106 13.4362 18.6233C13.8235 18.2361 14.4513 18.2361 14.8385 18.6233L25.706 29.4908L48.968 6.22849C49.3553 5.84126 49.9831 5.84126 50.3705 6.22849Z" fill="#C7DBE2"/>
</svg>
