<svg width="29" height="30" viewBox="0 0 29 30" fill="none" xmlns="http://www.w3.org/2000/svg">
<path d="M18.8409 3.78398C17.7386 2.55293 16.1992 1.875 14.4999 1.875C12.7917 1.875 11.2471 2.54883 10.1499 3.77227C9.04091 5.00918 8.50056 6.69023 8.62743 8.50547C8.87892 12.0867 11.5133 15 14.4999 15C17.4866 15 20.1164 12.0873 20.3719 8.50664C20.5004 6.70781 19.9567 5.03027 18.8409 3.78398Z" fill="white"/>
<path d="M24.4688 28.125H4.53133C4.27037 28.1285 4.01193 28.0718 3.77482 27.959C3.53771 27.8462 3.32789 27.6801 3.16063 27.4729C2.79246 27.0176 2.64406 26.3959 2.75395 25.7672C3.23199 23.0238 4.72391 20.7193 7.06883 19.1016C9.15207 17.6654 11.791 16.875 14.5001 16.875C17.2092 16.875 19.8481 17.666 21.9313 19.1016C24.2763 20.7188 25.7682 23.0232 26.2462 25.7666C26.3561 26.3953 26.2077 27.017 25.8395 27.4723C25.6723 27.6796 25.4625 27.8458 25.2254 27.9587C24.9883 28.0716 24.7298 28.1284 24.4688 28.125Z" fill="white"/>
</svg>
