<svg width="1433" height="417" viewBox="0 0 1433 417" fill="none" xmlns="http://www.w3.org/2000/svg">
<g clip-path="url(#clip0_121_428)">
<path d="M1432.69 415.393C1396.95 407.007 1359.56 400.447 1325.57 385.684C1314 380.559 1303.13 373.95 1291.43 369.192C1278.75 363.846 1265.03 361.86 1252.19 357.201C1234.65 350.555 1219.05 338.453 1203.19 326.412C1186.73 314.396 1172.58 299.376 1156.66 286.415C1147.25 279.095 1136.14 277.66 1125.65 272.866C1106.98 264.651 1094.77 239.773 1078 229.829C1065.75 221.969 1049.01 224.556 1036.4 217.42C1016.45 206.875 1005.21 176.528 981.839 177.423C966.499 178.588 949.92 191.082 936.467 180.709C916.948 163.653 872.005 121.4 852.29 103.56C847.781 99.4769 843.309 96.3503 836.986 98.0178C821.597 101.427 800.62 118.862 785.169 107.704C773.615 98.2998 765.675 83.6106 754.537 73.3845C744.453 62.8519 730.914 56.5741 719.555 49.0088C704.019 38.1451 695.123 18.7597 682.013 5.6277C674.048 -2.58748 668.902 -1.34907 660.631 6.37565C634.986 32.5171 610.971 54.8697 589.099 82.5929C578.758 94.8911 566.787 104.332 556.164 116.435C552.231 120.64 548.31 124.993 543.36 127.948C536.425 132.24 528.693 132.08 522.089 133.993C507.104 137.929 501.884 160.527 490.648 168.644C475.663 179.213 461.45 159.202 449.099 151.429C439.468 143.741 429.568 148.756 421.885 157.106C415.992 162.918 410.282 169.38 404.731 175.547C391.057 191.499 377.322 202.216 363.158 216.488C351.468 228.357 342.953 242.715 334.633 257.086C329.805 264.455 325.566 274.865 315.935 273.921C299.651 271.885 281.823 245.989 263.922 259.55C238.877 278.507 219.089 304.697 195.306 325.345C155.374 361.112 104.207 378.462 55.134 397.541C36.3872 405.376 11.1954 411.359 -7 416.313C16.2926 417.049 1139.24 417.674 1433 415.455L1432.68 415.381L1432.69 415.393ZM1173.77 338.195C1180.41 347.772 1187.76 360.523 1173.13 350.481C1155.45 338.244 1135.11 324.352 1125.48 305.617C1123.82 302.134 1121.06 296.457 1123.97 293.515C1139.46 289.321 1165.15 325.86 1173.33 337.558L1173.75 338.195H1173.77ZM889.453 322.28C878.217 312.544 863.232 299.351 854.581 286.476C849.607 278.592 853.92 277.979 859.482 280.714C880.03 290.057 923.197 329.514 939.775 349.464C941.466 351.573 944.088 354.479 944.48 356.305C944.48 356.514 944.382 356.637 944.186 356.673C940.388 356.048 932.877 350.395 922.278 343.97C911.692 337.165 898.324 329.404 889.918 322.66L889.465 322.292L889.453 322.28ZM1064.63 244.824C1072.46 243.108 1087.13 268.93 1084.4 272.977C1078.08 275.76 1060.43 249.974 1064.37 245.008L1064.63 244.824ZM979.217 247.767C981.9 245.131 982.317 239.785 982.133 233.912C981.373 224.09 982.917 212.773 992.916 209.094C1010.85 203.663 1021.64 223.796 1031 237.982C1043.56 259.293 1053.13 280.689 1064.18 298.775C1068.31 306.07 1055.45 295.587 1047.54 290.694C1035.16 282.406 1018.24 271.076 1006.32 263.082C996.751 256.718 991.249 252.745 990.869 254.045C997.841 270.966 1022.33 312.324 1032.19 331.758C1041.52 348.63 1041.62 349.697 1030.13 338.539C1003.35 312.532 971.804 288.585 950.962 258.312C948.438 254.425 940.008 242.311 948.499 242.164C956.353 242.298 970.811 254.143 978.935 248.037L979.241 247.755L979.217 247.767ZM845.955 164.23C847.56 163.286 847.842 160.159 847.083 155.377C841.177 127.727 831.95 109.2 864.249 138.027C881.072 153.538 900.027 162.108 912.966 180.856C919.166 189.243 960.887 258.606 924.398 227.805C911.655 218.168 889.428 189.979 894.746 221.675C902.661 272.584 939.42 314.04 973.458 353.068C975.86 356.244 980.736 361.602 980.16 364.141C976.742 364.815 968.055 357.225 964.219 354.258C940.633 334.738 916.715 315.315 897.099 292.092C884.527 277.55 872.936 262.015 859.274 248.441C829.573 222.974 835.785 223.134 823.618 187.49C821.254 179.422 813.032 158.724 826.841 158.724C833.384 159.055 841.164 165.677 845.722 164.352L845.943 164.23H845.955ZM661.256 73.2006C672.688 75.6284 680.211 80.9744 676.768 63.9677C675.911 58.0945 669.613 33.1302 680.849 36.6492C687.759 39.8249 694.805 56.4515 698.566 65.7089C705.771 81.8695 714.213 99.3543 726.87 111.861C730.08 114.362 729.554 108.918 728.892 105.976C728.549 99.1581 713.735 69.2034 730.681 78.4485C762.281 97.8094 767.415 137.72 785.733 168.276C795.106 184.706 808.388 199.285 820.053 213.913C830.039 226.763 824.476 228.247 811.672 219.713C798.647 210.995 786.456 199.077 774.962 188.005C772.108 185.773 752.172 163.58 752.368 174.529C752.65 179.532 758.421 190.469 761.264 199.567C764.033 207.991 764.891 216.647 766.3 225.292C768.199 238.645 774.754 250.845 781.555 262.383C786.627 270.904 792.41 280.211 793.342 284.404C793.587 285.373 793.697 286.17 793.231 286.857C790.916 288.034 788.306 285.483 784.238 282.896C775.109 276.005 764.768 267.238 755.517 259.636C743.068 249.189 731.122 238.657 720.866 226.162C711.113 214.514 702.12 200.242 692.28 188.127C675.359 166.927 636.861 139.866 687.318 132.742C693.886 130.388 687.967 122.761 685.578 118.556C683.311 112.915 650.315 73.2987 660.938 73.2251H661.244L661.256 73.2006ZM649.163 219.235C651.479 214.158 658.646 208.543 663.205 204.165C672.517 194.785 681.069 195.116 689.634 203.356C708.552 221.062 727.593 248.417 746.793 267.962C766.459 292.754 804.872 346.03 815.139 360.707C797.226 350.861 734.835 300.32 714.875 288.88C709.434 288.733 728.01 332.42 721.136 329.036C715.34 324.83 705.685 314.126 698.738 307.493C691.018 299.719 682.944 291.908 675.568 284.245C671.818 280.039 669 276.827 668.963 271.591C671.855 257.944 673.031 253.469 661.832 241.477C656.968 235.187 646.786 227.916 649.028 219.627L649.175 219.222L649.163 219.235ZM544.021 314.678C545.516 317.265 544.499 321.998 544.083 325.259C541.363 341.396 534.881 359.089 523.914 370.982C517.261 377.935 507.435 384.347 505.866 378.486C504.138 369.376 535.665 312.25 543.85 314.506L544.009 314.678H544.021ZM426.75 203.748C429.58 199.616 432.459 195.595 434.542 191.021C439.787 181.825 438.022 162.587 450.937 169.257C455.593 172.028 460.641 177.472 464.403 182.009C467.466 185.945 471.374 189.954 471.619 194.932C471.632 200.021 463.753 199.481 456.451 206.323C444.198 218.511 431.271 232.489 419.275 244.812C415.134 249.128 411.826 252.598 409.914 254.033C408.983 254.658 408.223 255.345 407.758 254.4C407.121 252.365 411.201 241.048 414.423 230.809C417.376 221.626 420.758 212.16 426.358 204.325L426.737 203.761L426.75 203.748Z" fill="#2D2D2D"/>
</g>
<defs>
<clipPath id="clip0_121_428">
<rect width="1440" height="417" fill="white" transform="translate(-7)"/>
</clipPath>
</defs>
</svg>
